<svg xmlns="http://www.w3.org/2000/svg" viewBox="99.8 49.8 1312.5 387.5" fill-rule="evenodd" role="img"><path fill="#111111" d="M391.3,76.1C392.9,76.1 395.7,75.7 400.0,76.0C404.3,76.3 413.3,77.6 417.0,78.1C420.7,78.7 419.8,78.6 422.0,79.4C424.2,80.1 426.9,81.1 430.0,82.8C433.1,84.4 438.0,87.1 440.9,89.4C443.8,91.6 445.4,93.5 447.3,96.1C449.3,98.7 451.3,102.5 452.6,105.0C453.8,107.5 453.9,107.0 454.7,111.0C455.4,115.0 456.8,125.2 457.0,129.0C457.2,132.8 456.2,131.7 456.0,134.0C455.8,136.3 456.8,137.3 455.9,143.0C455.0,148.7 452.7,161.7 450.6,168.0C448.6,174.3 446.3,176.5 443.7,181.0C441.0,185.5 439.4,189.1 434.6,195.0C429.9,200.9 418.8,212.1 415.4,216.1C411.9,220.1 414.2,218.1 414.1,219.0C414.1,219.9 412.0,220.1 415.1,221.5C418.3,222.9 429.2,225.9 433.0,227.5C436.8,229.0 435.9,229.2 438.0,231.1C440.1,233.0 443.8,236.5 445.9,239.0C448.0,241.5 449.1,243.2 450.6,246.0C452.0,248.8 453.7,253.3 454.6,256.0C455.5,258.7 455.8,259.2 456.0,262.0C456.2,264.8 456.3,269.5 455.9,273.0C455.5,276.5 455.8,277.3 453.6,283.0C451.5,288.7 447.2,299.2 443.2,307.0C439.2,314.8 433.7,324.0 429.7,330.0C425.6,336.0 422.4,339.1 418.9,343.0C415.4,346.9 412.5,350.2 408.9,353.7C405.2,357.1 401.1,360.6 397.0,363.9C392.9,367.2 387.8,371.0 384.0,373.6C380.2,376.2 377.0,377.5 374.0,379.5C371.0,381.4 370.5,382.7 366.0,385.2C361.5,387.8 350.8,393.0 347.0,394.6C343.2,396.3 345.5,394.5 343.0,395.4C340.5,396.2 337.8,397.9 332.0,399.6C326.2,401.4 315.3,404.3 308.0,405.9C300.7,407.4 294.7,408.4 288.0,409.0C281.3,409.5 272.0,409.0 268.0,409.1C264.0,409.3 268.7,410.2 264.0,410.0C259.3,409.8 246.3,408.9 240.0,407.9C233.7,406.9 229.8,405.0 226.0,404.1C222.2,403.2 220.3,403.6 217.0,402.6C213.7,401.7 210.0,400.3 206.0,398.6C202.0,396.9 197.5,394.3 193.0,392.4C188.5,390.5 182.6,388.8 179.0,387.2C175.4,385.6 174.0,385.9 171.5,382.9C168.9,379.8 166.6,373.5 163.6,369.0C160.7,364.5 157.2,359.9 153.9,356.0C150.6,352.1 147.7,348.6 143.9,345.3C140.1,342.1 133.5,338.4 131.1,336.6C128.8,334.9 130.4,336.8 129.8,335.0C129.1,333.2 127.7,329.0 127.1,326.0C126.5,323.0 126.2,319.7 126.0,317.0C125.8,314.3 125.8,312.8 126.1,310.0C126.5,307.2 127.4,302.8 128.1,300.0C128.9,297.2 128.6,296.3 130.5,293.0C132.3,289.7 135.4,284.6 139.1,280.0C142.9,275.4 149.2,268.9 153.0,265.1C156.8,261.3 159.7,259.0 162.0,257.1C164.3,255.3 165.1,255.3 166.7,254.0C168.2,252.7 169.1,251.0 171.1,249.4C173.2,247.8 171.7,248.4 179.0,244.3C186.3,240.2 208.3,228.2 215.0,224.8C221.7,221.3 216.8,224.5 219.0,223.5C221.2,222.6 224.3,220.5 228.0,219.0C231.7,217.5 237.2,216.1 241.0,214.7C244.8,213.2 242.3,213.2 251.0,210.3C259.7,207.5 282.8,200.2 293.0,197.3C303.2,194.5 308.2,193.9 312.0,193.1C315.8,192.4 313.0,193.6 316.0,192.9C319.0,192.2 327.2,190.2 330.0,188.9C332.8,187.6 332.0,187.6 332.9,185.0C333.8,182.4 334.5,176.3 335.3,173.0C336.2,169.7 337.4,167.2 337.9,165.0C338.4,162.8 337.2,164.2 338.4,160.0C339.5,155.8 343.5,144.2 344.6,140.0C345.8,135.8 344.7,137.3 345.4,135.0C346.0,132.7 347.5,130.3 348.7,126.0C349.8,121.7 351.2,113.2 352.4,109.0C353.5,104.8 355.1,103.0 355.7,101.0C356.2,99.0 355.8,97.9 355.5,97.1C355.3,96.3 355.1,96.1 354.0,96.2C352.9,96.3 351.5,96.7 349.0,97.8C346.5,98.9 342.3,100.8 339.0,102.8C335.7,104.7 332.8,106.3 329.0,109.4C325.2,112.4 319.9,117.3 316.3,121.1C312.8,124.9 309.0,129.5 307.5,132.0C305.9,134.5 307.0,135.1 307.1,136.0C307.2,136.9 306.3,137.0 308.1,137.5C309.9,138.1 313.5,138.2 318.0,139.3C322.5,140.5 335.6,143.1 335.4,144.7C335.2,146.2 321.7,148.0 317.0,148.9C312.3,149.8 310.2,149.9 307.0,150.0C303.8,150.1 300.8,151.0 298.0,149.6C295.2,148.3 291.4,143.8 290.1,141.9C288.8,140.0 289.6,140.1 290.1,138.0C290.6,135.9 291.9,131.5 293.2,129.0C294.6,126.5 296.2,124.8 298.0,123.0C299.8,121.2 301.9,120.0 303.9,118.0C305.9,116.0 306.5,114.3 310.0,111.1C313.5,107.9 320.0,102.6 325.0,99.0C330.0,95.4 333.5,92.8 340.0,89.8C346.5,86.7 359.3,82.6 364.0,80.5C368.7,78.4 366.3,77.5 368.1,77.2C369.9,77.0 371.2,79.1 375.0,79.0C378.8,78.8 387.9,76.8 390.7,76.3C393.4,75.9 389.8,76.2 391.3,76.1ZM921.4,81.1C921.9,81.1 922.9,80.9 924.0,81.1C925.1,81.3 926.0,81.4 928.0,82.4C930.0,83.5 934.4,86.1 935.9,87.3C937.4,88.6 936.8,88.2 937.0,90.0C937.2,91.8 937.9,92.7 936.9,98.0C935.8,103.3 932.9,114.8 930.6,122.0C928.4,129.2 924.7,137.2 923.4,141.0C922.0,144.8 924.1,140.5 922.6,145.0C921.2,149.5 916.7,162.3 914.6,168.0C912.5,173.7 911.7,173.8 910.0,179.0C908.3,184.2 906.2,193.8 904.6,199.0C903.1,204.2 902.8,204.8 900.5,210.0C898.3,215.2 893.0,225.7 891.4,230.0C889.7,234.3 891.1,234.2 890.6,236.0C890.1,237.8 889.4,237.5 888.4,241.0C887.3,244.5 885.2,251.8 884.1,257.0C883.0,262.2 882.3,268.0 882.0,272.0C881.7,276.0 881.8,277.7 882.1,281.0C882.5,284.3 883.1,288.8 884.1,292.0C885.1,295.2 886.2,297.6 888.1,300.0C890.0,302.3 894.3,304.7 895.4,306.1C896.5,307.5 895.5,308.3 894.6,308.4C893.7,308.6 891.6,307.4 890.0,307.1C888.4,306.9 887.3,307.6 885.0,306.9C882.7,306.1 878.3,304.3 876.1,302.6C873.9,301.0 873.2,300.1 871.8,297.0C870.3,293.9 868.5,286.4 867.5,284.1C866.6,281.8 866.7,283.1 866.0,283.1C865.3,283.1 864.7,282.8 863.3,284.1C862.0,285.4 859.2,289.3 857.7,290.9C856.1,292.5 855.4,292.9 854.0,293.9C852.6,295.0 850.7,296.3 849.0,297.2C847.3,298.1 845.5,298.4 844.0,299.4C842.5,300.3 841.7,301.7 840.0,302.8C838.3,303.8 836.2,304.8 834.0,305.7C831.8,306.5 829.0,307.4 827.0,307.6C825.0,307.8 824.2,308.0 822.0,306.9C819.8,305.8 816.2,303.1 814.0,301.0C811.8,298.8 809.9,297.5 808.8,294.0C807.6,290.5 806.7,285.5 807.1,280.0C807.5,274.5 808.6,268.7 811.4,261.0C814.1,253.3 819.0,241.8 823.5,234.0C827.9,226.2 834.4,218.6 838.1,214.0C841.9,209.4 844.2,207.8 846.0,206.5C847.8,205.2 846.0,205.8 849.0,206.1C852.0,206.4 860.7,207.5 864.0,208.5C867.3,209.5 867.9,211.2 868.9,212.1C869.9,213.0 869.9,212.5 870.2,214.0C870.5,215.5 871.1,219.4 870.9,221.0C870.7,222.6 870.5,223.0 869.0,223.5C867.5,224.1 864.2,223.7 862.0,224.5C859.8,225.2 857.5,227.0 856.0,228.1C854.5,229.2 854.1,229.5 853.1,231.0C852.1,232.5 851.2,235.2 849.9,237.0C848.6,238.8 847.5,238.5 845.4,242.0C843.2,245.5 839.1,253.2 836.8,258.0C834.4,262.8 833.0,265.8 831.3,271.0C829.7,276.2 827.8,285.2 827.1,289.0C826.5,292.8 827.2,292.9 827.5,294.0C827.8,295.1 828.3,295.2 829.0,295.5C829.8,295.8 830.4,296.6 832.0,295.9C833.6,295.1 835.8,294.5 838.7,291.0C841.5,287.5 845.5,281.3 849.2,275.0C852.9,268.7 858.3,257.4 860.8,253.1C863.3,248.8 863.4,250.7 864.2,249.0C865.1,247.3 864.7,245.2 865.8,243.0C866.8,240.8 869.0,238.8 870.5,236.0C872.1,233.2 873.3,231.3 874.9,226.0C876.5,220.7 878.9,209.7 879.9,204.0C880.9,198.3 880.4,196.5 881.1,192.0C881.8,187.5 883.3,180.3 884.1,177.0C884.9,173.7 885.4,174.5 885.9,172.0C886.4,169.5 886.6,164.5 887.1,162.0C887.6,159.5 888.4,159.3 888.9,157.0C889.4,154.7 889.3,151.2 890.1,148.0C890.9,144.8 893.2,140.3 893.9,138.0C894.5,135.7 893.8,135.7 894.1,134.0C894.5,132.3 893.9,133.5 896.0,128.0C898.1,122.5 903.9,107.2 906.8,101.0C909.6,94.8 911.1,93.4 913.1,91.0C915.1,88.7 917.6,88.6 918.9,87.0C920.2,85.4 920.4,82.4 920.8,81.5C921.2,80.5 920.8,81.2 921.4,81.1ZM999.6,208.1C1000.2,208.1 1001.4,207.9 1003.0,208.4C1004.6,208.9 1006.9,209.5 1009.0,211.1C1011.1,212.7 1014.1,215.9 1015.9,218.0C1017.6,220.1 1018.6,222.7 1019.5,223.9C1020.3,225.0 1020.3,224.9 1021.0,224.9C1021.7,224.9 1022.6,225.0 1023.6,223.9C1024.7,222.7 1025.9,219.5 1027.1,218.0C1028.3,216.5 1029.0,215.6 1031.0,215.1C1033.0,214.6 1036.5,214.7 1039.0,215.1C1041.5,215.5 1044.3,216.7 1046.0,217.3C1047.7,218.0 1047.5,217.8 1049.0,219.1C1050.5,220.4 1053.1,222.7 1055.0,225.0C1056.8,227.3 1058.8,231.4 1060.1,233.0C1061.4,234.6 1061.7,235.0 1063.0,234.8C1064.3,234.5 1065.2,234.3 1067.9,231.7C1070.6,229.0 1076.3,221.9 1079.1,219.0C1082.0,216.1 1083.0,215.2 1085.0,214.4C1087.0,213.5 1088.5,213.5 1091.0,214.1C1093.5,214.7 1098.2,216.9 1100.0,217.8C1101.8,218.6 1100.8,217.9 1101.9,219.1C1103.0,220.3 1105.0,221.5 1106.5,225.0C1108.0,228.5 1110.2,235.5 1110.9,240.0C1111.6,244.5 1111.1,248.7 1110.9,252.0C1110.7,255.3 1110.4,257.2 1109.9,260.0C1109.4,262.8 1108.6,265.8 1107.7,269.0C1106.7,272.2 1105.4,276.3 1104.2,279.0C1103.1,281.7 1101.7,283.0 1100.8,285.0C1099.8,287.0 1099.8,288.5 1098.6,291.0C1097.3,293.5 1095.1,297.7 1093.3,300.0C1091.6,302.3 1090.0,302.9 1088.1,305.0C1086.2,307.2 1083.4,311.3 1081.9,312.9C1080.4,314.5 1079.8,314.4 1079.0,314.6C1078.3,314.9 1078.0,316.6 1077.5,314.5C1077.0,312.4 1074.9,308.1 1076.1,302.0C1077.3,295.9 1082.5,284.8 1084.6,278.0C1086.8,271.2 1088.0,265.7 1088.9,261.0C1089.8,256.3 1089.8,255.0 1090.0,250.0C1090.1,245.0 1090.2,234.5 1089.9,231.0C1089.5,227.5 1088.8,229.4 1088.0,229.1C1087.2,228.9 1087.0,227.5 1085.1,229.5C1083.2,231.4 1079.1,236.7 1076.4,241.0C1073.6,245.3 1071.4,248.7 1068.4,255.0C1065.4,261.3 1060.2,274.0 1058.4,279.0C1056.5,284.0 1059.0,280.8 1057.2,285.0C1055.4,289.2 1050.0,300.2 1047.6,304.0C1045.3,307.8 1044.3,307.0 1043.0,307.6C1041.7,308.3 1040.8,308.0 1040.0,307.9C1039.2,307.8 1039.5,308.3 1038.0,307.2C1036.5,306.2 1032.4,302.8 1031.1,301.6C1029.9,300.4 1029.6,303.6 1030.5,300.0C1031.4,296.4 1034.7,284.8 1036.3,280.0C1038.0,275.2 1039.4,275.5 1040.6,271.0C1041.9,266.5 1043.3,256.8 1043.9,253.0C1044.4,249.2 1044.2,250.5 1044.0,248.0C1043.8,245.5 1043.2,240.1 1042.6,238.0C1042.1,235.9 1041.7,235.9 1040.9,235.5C1040.1,235.0 1039.7,233.5 1038.0,235.5C1036.3,237.4 1033.2,242.6 1030.8,247.0C1028.3,251.4 1026.8,252.7 1023.3,262.0C1019.9,271.3 1013.1,295.2 1010.2,303.0C1007.3,310.8 1007.2,307.6 1006.0,308.5C1004.8,309.5 1004.1,309.1 1003.0,308.9C1001.9,308.6 1000.9,308.2 999.1,307.0C997.4,305.8 993.9,303.7 992.5,301.9C991.0,300.1 990.1,298.8 990.5,296.0C990.8,293.2 993.7,288.5 994.6,285.0C995.6,281.5 994.9,279.8 996.4,275.0C997.9,270.2 1001.9,262.0 1003.6,256.0C1005.4,250.0 1006.3,242.8 1006.9,239.0C1007.4,235.2 1007.2,235.3 1007.0,233.0C1006.8,230.7 1006.4,228.0 1005.7,225.0C1004.9,222.0 1003.7,217.8 1002.7,215.0C1001.6,212.2 1000.0,209.6 999.5,208.5C999.0,207.3 999.0,208.1 999.6,208.1ZM691.3,211.1C692.6,211.1 695.6,210.7 698.0,211.3C700.4,212.0 704.4,214.0 706.0,214.8C707.6,215.6 706.9,214.9 707.9,216.1C708.9,217.3 710.9,219.2 712.2,222.0C713.6,224.8 715.3,227.3 715.9,233.0C716.5,238.7 716.4,249.7 715.9,256.0C715.4,262.3 713.9,266.8 712.7,271.0C711.4,275.2 710.5,276.7 708.2,281.0C705.9,285.3 701.4,293.5 699.0,297.0C696.6,300.5 696.0,299.7 694.1,302.0C692.2,304.3 691.0,305.7 687.4,311.0C683.7,316.3 674.9,331.6 672.4,334.1C669.9,336.6 671.1,330.5 672.4,326.0C673.6,321.5 677.5,313.2 679.6,307.0C681.8,300.8 683.8,293.2 685.3,289.0C686.8,284.8 687.7,285.3 688.6,282.0C689.6,278.7 690.1,273.2 691.1,269.0C692.2,264.8 694.2,260.2 694.9,257.0C695.5,253.8 694.8,252.0 695.0,250.0C695.2,248.0 695.8,248.5 696.0,245.0C696.1,241.5 696.1,232.1 695.9,229.0C695.7,225.9 695.3,226.7 694.6,226.1C694.0,225.5 693.4,224.5 692.0,225.5C690.6,226.5 688.8,228.6 686.4,232.0C683.9,235.4 679.4,242.5 677.3,246.0C675.2,249.5 675.9,248.2 673.8,253.0C671.6,257.8 666.3,270.0 664.3,275.0C662.4,280.0 664.1,278.7 662.2,283.0C660.4,287.3 655.4,297.4 653.2,301.0C651.0,304.6 650.5,303.9 649.0,304.5C647.5,305.2 645.5,305.3 644.0,304.6C642.5,303.9 641.0,301.4 639.9,300.4C638.7,299.4 637.7,299.2 637.1,298.6C636.5,298.1 635.5,300.3 636.2,297.0C636.9,293.7 639.6,284.0 641.4,279.0C643.1,274.0 645.3,271.0 646.9,267.0C648.4,263.0 649.8,258.2 650.7,255.0C651.5,251.8 651.7,251.2 651.9,248.0C652.1,244.8 652.2,239.2 652.0,236.0C651.8,232.8 651.4,231.5 650.9,229.0C650.3,226.5 649.7,223.8 648.7,221.0C647.6,218.2 644.3,213.6 644.8,212.5C645.4,211.4 650.3,213.7 652.0,214.3C653.7,214.9 653.5,214.8 655.0,216.1C656.5,217.4 659.0,219.5 660.9,222.0C662.8,224.5 665.0,229.2 666.4,230.9C667.7,232.5 667.4,232.7 669.0,231.9C670.6,231.0 673.3,228.8 676.0,226.0C678.7,223.2 682.9,217.8 685.3,215.3C687.8,212.9 689.7,212.1 690.7,211.4C691.7,210.7 690.1,211.1 691.3,211.1ZM1340.3,211.1C1341.9,211.1 1346.1,210.6 1349.0,211.1C1351.9,211.7 1355.4,212.3 1357.9,214.5C1360.4,216.6 1363.1,221.4 1363.9,224.0C1364.7,226.6 1364.2,226.5 1362.7,230.0C1361.1,233.5 1356.6,241.7 1354.6,245.0C1352.7,248.3 1351.8,248.3 1350.8,250.0C1349.8,251.7 1351.3,251.2 1348.6,255.0C1346.0,258.8 1338.7,268.9 1334.9,273.0C1331.1,277.0 1328.5,277.8 1326.0,279.2C1323.5,280.7 1322.6,280.9 1320.0,281.6C1317.4,282.3 1311.9,282.9 1310.1,283.5C1308.3,284.0 1309.1,284.3 1309.1,285.0C1309.1,285.8 1309.1,287.1 1310.1,287.9C1311.1,288.7 1313.2,289.6 1315.0,289.9C1316.8,290.2 1318.3,290.5 1321.0,289.9C1323.7,289.3 1328.0,287.2 1331.0,286.4C1334.0,285.5 1334.5,286.7 1339.0,284.6C1343.5,282.4 1352.7,276.9 1358.0,273.6C1363.3,270.4 1366.7,268.2 1371.0,264.9C1375.3,261.5 1385.0,251.0 1384.1,253.6C1383.2,256.2 1371.7,273.5 1365.7,280.7C1359.6,287.8 1354.6,291.9 1348.0,296.7C1341.4,301.4 1330.2,307.0 1326.0,309.2C1321.8,311.5 1325.3,309.9 1323.0,310.0C1320.7,310.1 1314.7,310.2 1312.0,309.9C1309.3,309.6 1309.0,309.2 1307.0,308.2C1305.0,307.3 1301.9,305.7 1300.1,304.3C1298.3,303.0 1297.6,302.2 1296.0,300.0C1294.4,297.8 1292.1,294.2 1290.8,291.0C1289.5,287.8 1288.6,283.3 1288.1,281.0C1287.7,278.7 1287.3,280.5 1288.1,277.0C1288.9,273.5 1291.0,264.8 1292.8,260.0C1294.5,255.2 1297.1,251.0 1298.8,248.0C1300.5,245.0 1301.4,244.2 1303.1,242.0C1304.8,239.8 1305.5,238.5 1309.0,235.0C1312.5,231.5 1320.2,224.4 1324.0,221.1C1327.8,217.8 1329.4,217.0 1332.0,215.3C1334.6,213.7 1338.3,212.2 1339.7,211.5C1341.0,210.8 1338.8,211.2 1340.3,211.1ZM608.3,213.1C609.4,213.1 611.7,212.7 614.0,213.3C616.3,214.0 620.2,215.8 622.0,216.8C623.8,217.7 623.8,217.8 624.9,219.0C626.0,220.2 627.2,221.0 628.5,224.0C629.9,227.0 632.2,231.8 632.9,237.0C633.6,242.2 633.4,249.2 632.9,255.0C632.4,260.8 630.8,268.2 629.9,272.0C629.0,275.8 629.9,273.5 627.6,278.0C625.2,282.5 619.5,293.7 616.0,299.0C612.4,304.3 610.9,303.7 606.3,310.0C601.8,316.3 591.6,334.1 588.8,337.1C586.0,340.1 588.1,332.7 589.4,328.0C590.7,323.3 595.1,313.5 596.6,309.0C598.2,304.5 597.0,305.3 598.5,301.0C600.0,296.7 604.0,288.0 605.6,283.0C607.3,278.0 607.4,273.7 608.1,271.0C608.8,268.3 609.1,271.3 609.9,267.0C610.7,262.7 612.5,250.7 613.0,245.0C613.5,239.3 613.2,235.8 612.9,233.0C612.5,230.2 611.7,229.2 610.9,228.5C610.1,227.7 610.1,226.4 608.0,228.5C605.9,230.6 601.9,235.2 598.4,241.0C594.8,246.8 589.8,256.7 586.8,263.0C583.8,269.3 581.6,275.3 580.4,279.0C579.1,282.7 580.9,281.0 579.2,285.0C577.5,289.0 572.0,299.7 570.2,303.0C568.5,306.3 569.6,304.3 568.9,304.9C568.2,305.5 567.3,306.3 566.0,306.6C564.7,307.0 563.2,308.0 561.0,306.9C558.8,305.8 553.3,304.4 552.8,299.9C552.4,295.4 556.5,285.1 558.4,280.0C560.2,274.9 562.3,273.0 563.9,269.0C565.4,265.0 566.8,259.3 567.7,256.0C568.5,252.7 568.7,251.8 568.9,249.0C569.1,246.2 569.2,241.7 569.0,239.0C568.8,236.3 568.4,235.5 567.9,233.0C567.3,230.5 566.7,227.0 565.6,224.0C564.6,221.0 562.2,216.7 561.5,215.1C560.8,213.6 561.3,214.7 561.6,214.6C561.8,214.5 561.4,214.1 563.0,214.7C564.6,215.3 568.5,216.4 571.0,218.1C573.5,219.8 575.9,222.5 577.9,225.0C579.9,227.5 581.8,231.4 583.1,232.9C584.5,234.4 585.2,233.9 586.0,233.9C586.8,233.9 586.8,233.9 588.0,232.9C589.2,231.9 590.6,230.6 593.0,228.0C595.3,225.4 599.7,219.8 602.1,217.3C604.6,214.9 606.6,214.1 607.7,213.4C608.7,212.7 607.3,213.1 608.3,213.1ZM1260.3,214.1C1261.4,214.1 1263.7,213.6 1266.0,214.1C1268.3,214.6 1272.2,216.4 1274.0,217.2C1275.8,218.1 1275.6,217.8 1276.9,219.1C1278.1,220.4 1280.0,221.5 1281.5,225.0C1283.0,228.5 1285.2,235.7 1285.9,240.0C1286.6,244.3 1286.2,247.7 1286.0,251.0C1285.8,254.3 1285.4,257.5 1284.9,260.0C1284.4,262.5 1283.5,263.8 1283.1,266.0C1282.7,268.2 1283.6,270.0 1282.6,273.0C1281.7,276.0 1279.9,279.5 1277.5,284.0C1275.2,288.5 1271.2,295.8 1268.3,300.0C1265.5,304.2 1264.9,302.7 1260.3,309.0C1255.8,315.3 1244.3,333.7 1241.2,338.1C1238.2,342.4 1241.9,336.3 1242.0,335.0C1242.0,333.7 1240.6,333.0 1241.4,330.0C1242.2,327.0 1244.6,322.7 1246.6,317.0C1248.6,311.3 1251.5,301.2 1253.3,296.0C1255.2,290.8 1255.9,291.8 1257.6,286.0C1259.4,280.2 1262.8,266.3 1263.9,261.0C1265.0,255.7 1263.8,256.0 1264.0,254.0C1264.2,252.0 1264.8,252.8 1265.0,249.0C1265.1,245.2 1265.2,234.4 1264.9,231.0C1264.5,227.6 1263.8,228.8 1263.0,228.5C1262.2,228.2 1262.0,227.0 1260.1,229.1C1258.2,231.2 1254.8,235.4 1251.4,241.0C1248.0,246.6 1242.8,256.7 1239.8,263.0C1236.8,269.3 1234.6,275.3 1233.4,279.0C1232.1,282.7 1233.9,281.0 1232.2,285.0C1230.5,289.0 1225.4,299.3 1223.2,303.0C1221.0,306.7 1220.5,306.4 1219.0,307.2C1217.5,308.0 1216.1,308.8 1214.0,307.9C1211.9,306.9 1207.6,303.0 1206.1,301.6C1204.7,300.3 1204.7,303.4 1205.5,300.0C1206.3,296.5 1209.1,286.2 1211.0,281.0C1212.9,275.8 1215.0,273.5 1216.6,269.0C1218.3,264.5 1220.2,259.7 1220.9,254.0C1221.6,248.3 1221.3,239.7 1220.9,235.0C1220.5,230.3 1219.8,229.3 1218.6,226.0C1217.5,222.7 1213.5,216.9 1213.9,215.5C1214.3,214.0 1219.3,216.7 1221.0,217.3C1222.7,217.9 1222.5,217.8 1224.0,219.1C1225.5,220.4 1227.9,222.5 1229.9,225.0C1231.9,227.5 1234.8,232.2 1236.1,233.9C1237.5,235.5 1236.9,235.1 1238.0,234.8C1239.1,234.4 1240.1,234.4 1242.9,231.7C1245.7,228.9 1252.2,220.9 1255.0,218.0C1257.8,215.1 1258.8,215.0 1259.7,214.4C1260.5,213.7 1259.3,214.2 1260.3,214.1ZM384.3,90.1C386.2,90.1 390.7,89.7 395.0,90.0C399.3,90.3 406.0,91.4 410.0,92.1C414.0,92.8 415.5,93.0 419.0,94.4C422.5,95.8 428.0,98.5 431.0,100.5C434.0,102.4 435.4,104.2 436.9,106.0C438.4,107.8 438.9,108.3 440.2,111.0C441.5,113.7 443.9,119.0 444.7,122.0C445.5,125.0 445.5,124.7 445.0,129.0C444.5,133.3 443.0,143.0 441.6,148.0C440.2,153.0 438.9,154.7 436.6,159.0C434.2,163.3 430.9,169.2 427.6,174.0C424.4,178.8 421.3,182.8 416.9,188.0C412.5,193.2 405.8,200.4 401.0,205.0C396.2,209.6 391.7,213.0 388.0,215.7C384.3,218.3 382.8,219.4 379.0,220.6C375.2,221.9 369.2,222.2 365.0,223.3C360.8,224.5 356.3,226.8 354.0,227.5C351.7,228.3 351.8,228.1 351.0,228.0C350.2,227.9 349.5,228.2 349.1,226.9C348.8,225.5 348.5,223.5 349.0,220.0C349.6,216.5 351.5,208.9 352.3,206.0C353.2,203.1 353.0,203.3 354.1,202.4C355.2,201.4 357.4,200.8 359.0,200.3C360.6,199.9 362.3,200.2 364.0,199.9C365.7,199.5 366.2,200.1 369.0,198.2C371.8,196.4 378.5,191.1 381.0,188.9C383.5,186.7 383.9,185.9 384.1,185.1C384.2,184.3 386.0,183.8 382.0,184.1C378.0,184.4 364.1,186.7 360.0,187.0C355.9,187.3 357.9,186.4 357.5,185.9C357.0,185.4 356.7,186.0 357.1,184.0C357.5,182.0 359.2,177.2 359.9,174.0C360.6,170.8 360.6,167.3 361.1,165.0C361.6,162.7 362.4,162.3 362.9,160.0C363.4,157.7 363.4,154.3 364.1,151.0C364.8,147.7 366.2,144.3 366.9,140.0C367.6,135.7 367.2,130.0 368.3,125.0C369.5,120.0 372.0,115.2 373.7,110.0C375.3,104.8 377.0,97.1 378.0,94.0C379.1,90.9 379.1,92.1 380.0,91.5C381.0,90.9 382.9,90.6 383.7,90.3C384.4,90.1 382.5,90.2 384.3,90.1ZM924.4,103.1C924.7,103.2 925.9,102.5 925.8,104.1C925.6,105.8 926.5,104.9 923.7,113.0C920.8,121.1 911.3,145.9 908.6,152.5C905.9,159.1 907.7,152.8 907.5,152.5C907.2,152.3 906.6,153.6 907.1,151.0C907.6,148.4 907.5,144.9 910.3,137.0C913.2,129.1 921.7,109.1 924.0,103.5C926.4,97.8 924.1,103.0 924.4,103.1ZM317.3,210.1C318.5,210.1 322.7,210.0 323.9,210.5C325.1,211.0 325.3,209.7 324.6,213.0C324.0,216.3 321.7,222.8 320.1,230.0C318.5,237.2 316.2,250.2 314.9,256.0C313.6,261.8 312.8,262.0 312.1,265.0C311.4,268.0 311.4,271.7 310.9,274.0C310.4,276.3 309.4,277.2 309.1,279.0C308.8,280.8 310.3,278.5 308.9,285.0C307.5,291.5 303.1,309.8 300.6,318.0C298.2,326.2 295.2,330.8 294.1,334.0C293.0,337.2 294.0,336.2 294.1,337.0C294.3,337.8 293.8,337.4 295.1,338.9C296.4,340.4 300.5,344.5 302.0,345.9C303.5,347.2 302.7,346.6 304.0,347.0C305.3,347.3 308.4,348.0 310.0,348.0C311.6,348.0 312.7,347.9 313.9,346.9C315.1,345.9 315.7,344.8 317.2,342.0C318.8,339.2 320.8,336.7 323.2,330.0C325.6,323.3 328.6,313.7 331.7,302.0C334.7,290.3 339.3,267.6 341.4,260.0C343.4,252.4 339.1,258.6 344.0,256.5C349.0,254.3 362.5,251.1 371.0,247.2C379.5,243.4 390.0,235.7 395.0,233.4C400.0,231.0 397.5,232.5 401.0,233.0C404.5,233.5 412.0,235.1 416.0,236.5C420.0,237.8 422.4,239.3 425.0,241.1C427.6,242.9 430.2,245.4 431.6,247.0C433.1,248.7 432.9,249.0 433.7,251.0C434.4,253.0 435.7,256.0 436.0,259.0C436.3,262.0 436.5,264.7 435.7,269.0C434.8,273.3 432.2,280.7 430.7,285.0C429.1,289.3 428.3,290.7 426.2,295.0C424.2,299.3 422.4,304.8 418.3,311.0C414.3,317.2 406.1,327.0 401.9,332.0C397.7,337.0 397.5,337.1 393.0,340.9C388.5,344.7 381.3,350.6 375.0,354.9C368.7,359.1 359.0,363.8 355.0,366.4C351.0,368.9 354.7,368.2 351.0,370.2C347.3,372.3 339.0,376.2 333.0,378.6C327.0,381.0 319.3,383.4 315.0,384.7C310.7,385.9 309.2,385.6 307.0,386.1C304.8,386.6 304.7,387.3 302.0,387.9C299.3,388.5 293.8,389.5 291.0,389.9C288.2,390.3 287.2,389.8 285.0,390.1C282.8,390.4 281.0,391.4 278.0,391.9C275.0,392.4 272.0,392.8 267.0,393.0C262.0,393.2 252.3,393.2 248.0,392.9C243.7,392.6 243.5,391.4 241.0,391.1C238.5,390.8 235.5,391.2 233.0,391.0C230.5,390.8 227.8,390.4 226.0,389.9C224.2,389.4 224.0,388.7 222.0,388.1C220.0,387.6 217.0,387.4 214.0,386.7C211.0,385.9 208.0,385.2 204.0,383.6C200.0,382.1 194.2,379.7 190.0,377.6C185.8,375.4 183.2,373.8 179.0,370.9C174.8,367.9 168.3,362.7 165.0,359.9C161.7,357.1 161.5,356.8 159.1,354.0C156.7,351.2 152.8,346.7 150.4,343.0C147.9,339.3 145.8,335.5 144.5,332.0C143.1,328.5 142.1,326.0 142.1,322.0C142.1,318.0 142.7,312.7 144.4,308.0C146.0,303.3 148.7,298.9 152.1,294.0C155.6,289.1 162.0,281.8 165.1,278.3C168.3,274.9 167.4,276.0 171.0,273.4C174.6,270.7 182.0,265.6 187.0,262.3C192.0,259.1 196.2,256.4 201.0,253.8C205.8,251.1 208.0,250.0 216.0,246.4C224.0,242.9 238.0,236.7 249.0,232.3C260.0,228.0 272.2,223.5 282.0,220.4C291.8,217.2 302.2,215.3 308.0,213.6C313.8,212.0 315.1,210.9 316.7,210.4C318.2,209.8 316.1,210.1 317.3,210.1ZM1344.3,234.1C1344.7,234.3 1345.7,234.3 1345.8,235.1C1345.8,235.9 1346.4,236.2 1344.5,239.0C1342.7,241.8 1338.1,248.2 1334.9,251.9C1331.6,255.5 1327.8,258.7 1325.0,260.9C1322.2,263.1 1319.6,264.5 1318.0,265.2C1316.4,266.0 1315.7,265.9 1315.1,265.5C1314.5,265.1 1313.2,265.2 1314.5,263.0C1315.8,260.8 1318.2,256.8 1323.1,252.0C1328.0,247.3 1340.1,237.4 1343.7,234.5C1347.2,231.5 1344.0,234.0 1344.3,234.1Z"/><path fill="#da0301" d="M540.3,210.2C541.7,210.7 546.4,212.3 548.0,213.1C549.6,213.9 549.4,214.4 549.8,215.0C550.1,215.6 550.7,215.5 550.1,217.0C549.5,218.5 547.6,220.8 546.3,224.0C545.0,227.2 544.0,230.0 542.3,236.0C540.6,242.0 537.4,254.7 536.1,260.0C534.9,265.3 535.4,265.8 534.9,268.0C534.4,270.2 533.7,270.2 533.1,273.0C532.5,275.8 531.5,281.7 531.1,285.0C530.7,288.3 531.2,290.7 530.9,293.0C530.5,295.3 529.0,295.2 529.0,299.0C529.0,302.8 530.6,312.9 530.8,315.9C530.9,318.9 531.0,316.9 529.9,316.9C528.7,316.8 526.1,316.5 524.0,315.6C521.9,314.8 518.9,313.5 517.1,311.9C515.3,310.3 514.3,308.5 513.3,306.0C512.4,303.5 511.9,298.8 511.2,297.0C510.5,295.2 509.9,295.2 509.0,295.2C508.1,295.2 507.8,295.2 506.0,297.0C504.2,298.8 500.2,303.9 498.0,305.9C495.8,307.9 494.3,308.5 493.0,309.2C491.7,309.9 492.2,309.9 490.0,310.0C487.8,310.0 482.8,310.5 480.0,309.5C477.2,308.5 474.9,306.1 473.1,304.0C471.3,301.9 470.2,299.0 469.3,297.0C468.5,295.0 468.2,295.0 468.0,292.0C467.8,289.0 467.6,283.2 468.0,279.0C468.4,274.8 469.4,271.0 470.3,267.0C471.3,263.0 472.6,258.0 473.8,255.0C475.0,252.0 476.7,250.7 477.5,249.0C478.4,247.3 477.8,246.8 478.8,245.0C479.7,243.2 482.3,239.8 483.2,238.0C484.2,236.2 482.4,237.3 484.5,234.3C486.5,231.4 492.8,223.3 495.3,220.3C497.9,217.3 498.4,217.4 500.0,216.4C501.6,215.3 502.8,214.5 505.0,214.1C507.2,213.7 510.3,213.6 513.0,214.1C515.7,214.6 518.0,216.4 521.0,216.9C524.0,217.4 527.9,218.0 531.0,216.9C534.1,215.8 538.1,211.5 539.7,210.4C541.2,209.3 539.0,209.8 540.3,210.2Z"/><path fill="#0018ac" d="M796.3,209.2C797.7,209.6 802.2,210.7 804.0,211.5C805.8,212.3 806.3,213.2 806.9,214.0C807.4,214.8 808.1,214.3 807.4,216.0C806.8,217.7 804.5,220.2 803.0,224.0C801.5,227.8 800.7,229.8 798.3,239.0C796.0,248.2 790.7,271.0 789.1,279.0C787.5,287.0 789.4,283.7 788.9,287.0C788.4,290.3 786.2,294.1 786.0,299.0C785.8,303.9 788.6,313.7 787.8,316.5C786.9,319.3 783.3,316.5 781.0,315.6C778.7,314.8 776.1,313.7 774.1,311.6C772.1,309.5 769.9,305.6 768.8,303.0C767.7,300.4 768.0,297.4 767.5,296.1C767.1,294.8 766.9,295.0 766.0,295.2C765.1,295.5 763.6,295.9 762.1,297.3C760.6,298.8 758.9,302.2 757.0,304.0C755.1,305.8 752.8,307.2 751.0,308.2C749.2,309.2 748.3,309.7 746.0,309.9C743.7,310.1 739.5,310.3 737.0,309.5C734.5,308.7 732.5,306.4 731.0,305.0C729.5,303.6 728.9,303.3 727.8,301.0C726.6,298.7 724.7,294.5 724.1,291.0C723.5,287.5 723.6,284.0 724.0,280.0C724.4,276.0 725.3,271.3 726.3,267.0C727.4,262.7 729.3,257.0 730.5,254.0C731.7,251.0 732.8,250.5 733.5,249.0C734.3,247.5 733.8,247.0 734.8,245.0C735.8,243.0 738.6,238.8 739.5,237.0C740.5,235.2 738.4,237.0 740.5,234.0C742.5,231.0 748.9,222.4 752.0,219.1C755.1,215.8 756.7,215.4 759.0,214.2C761.3,213.1 764.3,212.4 766.0,212.1C767.7,211.8 766.8,211.7 769.0,212.4C771.2,213.0 775.8,215.3 779.0,215.9C782.2,216.5 786.2,216.0 788.0,215.9C789.8,215.7 788.7,215.9 790.0,214.9C791.3,213.8 794.6,210.4 795.7,209.5C796.7,208.5 795.0,208.9 796.3,209.2Z"/><path fill="#0e6b00" d="M971.3,209.1C972.9,209.5 978.2,210.8 980.0,211.5C981.8,212.1 981.4,212.4 981.9,213.0C982.3,213.6 983.3,213.3 982.8,215.0C982.2,216.7 979.8,220.5 978.8,223.0C977.7,225.5 978.1,223.8 976.3,230.0C974.6,236.2 969.8,254.2 968.3,260.0C966.9,265.8 968.6,261.7 967.9,265.0C967.2,268.3 964.8,276.3 964.1,280.0C963.4,283.7 964.2,284.2 963.9,287.0C963.5,289.8 962.2,292.3 962.0,297.0C961.8,301.7 963.6,312.5 962.8,315.4C961.9,318.4 959.2,315.6 957.0,314.6C954.8,313.7 951.5,312.2 949.3,309.9C947.2,307.6 945.3,303.5 944.4,301.0C943.4,298.5 943.9,296.3 943.5,295.1C943.1,294.0 942.7,294.1 942.0,294.1C941.2,294.1 940.8,293.5 939.0,295.1C937.2,296.8 933.2,301.9 931.0,304.0C928.8,306.1 927.7,306.7 926.0,307.6C924.3,308.4 923.2,308.8 921.0,309.0C918.8,309.1 915.3,309.4 913.0,308.5C910.7,307.7 908.5,305.4 907.0,304.0C905.5,302.6 904.9,302.3 903.8,300.0C902.6,297.7 900.7,293.5 900.1,290.0C899.5,286.5 899.6,283.0 900.0,279.0C900.4,275.0 901.3,270.3 902.3,266.0C903.4,261.7 904.0,258.7 906.5,253.0C909.0,247.3 913.9,237.6 917.4,232.0C920.8,226.4 924.7,222.2 927.3,219.3C930.0,216.5 930.7,216.0 933.0,214.8C935.3,213.6 939.0,212.5 941.0,212.1C943.0,211.7 943.2,211.9 945.0,212.4C946.8,212.8 948.8,214.3 952.0,214.9C955.2,215.5 960.9,216.7 964.0,215.8C967.1,214.9 969.4,210.6 970.7,209.5C971.9,208.4 969.8,208.8 971.3,209.1Z"/><path fill="#c8b101" d="M908.2,150.2C908.4,150.5 909.5,149.2 908.6,152.0C907.8,154.8 903.4,167.3 903.2,167.1C903.1,166.8 906.9,153.3 907.8,150.5C908.6,147.7 908.1,150.0 908.2,150.2ZM1191.3,211.1C1192.7,211.5 1197.5,213.1 1199.0,213.8C1200.5,214.4 1200.2,214.6 1200.5,215.1C1200.8,215.6 1201.8,214.6 1200.9,216.9C1200.0,219.2 1196.2,226.3 1195.1,229.0C1194.1,231.7 1195.3,230.5 1194.6,233.0C1194.0,235.5 1191.8,241.3 1191.1,244.0C1190.4,246.7 1191.5,245.7 1190.6,249.0C1189.8,252.3 1187.4,258.7 1186.1,264.0C1184.9,269.3 1183.8,276.2 1183.1,281.0C1182.4,285.8 1182.4,290.2 1181.9,293.0C1181.4,295.8 1180.2,294.4 1180.1,298.0C1180.0,301.6 1181.4,311.9 1181.5,314.9C1181.7,317.9 1181.8,315.8 1180.9,315.9C1179.9,315.9 1177.6,315.8 1176.0,315.2C1174.4,314.6 1172.5,313.3 1171.1,312.2C1169.7,311.1 1168.5,310.5 1167.4,308.7C1166.2,306.8 1165.0,303.1 1164.4,301.0C1163.7,298.9 1163.9,297.1 1163.5,296.1C1163.1,295.1 1162.7,295.3 1162.0,295.1C1161.2,295.0 1159.8,295.0 1159.0,295.1C1158.2,295.3 1158.4,294.9 1157.3,296.0C1156.3,297.1 1154.9,299.8 1152.9,301.9C1150.8,304.0 1147.3,307.2 1145.0,308.5C1142.7,309.9 1141.3,310.0 1139.0,310.0C1136.7,309.9 1133.4,309.3 1131.1,308.2C1128.9,307.2 1127.1,306.0 1125.5,303.7C1123.8,301.3 1121.9,298.1 1121.1,294.0C1120.3,289.9 1120.6,282.2 1120.7,279.0C1120.8,275.8 1121.7,276.7 1121.9,275.0C1122.1,273.3 1121.5,271.7 1122.1,269.0C1122.8,266.3 1125.2,261.3 1125.9,259.0C1126.6,256.7 1125.9,256.3 1126.5,255.0C1127.1,253.7 1128.5,253.0 1129.5,251.0C1130.6,249.0 1131.0,246.6 1132.8,243.1C1134.6,239.6 1137.9,233.6 1140.4,230.0C1142.8,226.4 1144.9,223.7 1147.3,221.3C1149.8,219.0 1152.7,217.0 1155.0,215.8C1157.3,214.6 1159.7,214.4 1161.0,214.1C1162.3,213.8 1161.8,213.7 1163.0,214.1C1164.2,214.5 1166.2,216.0 1168.0,216.6C1169.8,217.3 1171.3,217.7 1174.0,217.9C1176.7,218.1 1181.2,218.9 1184.0,217.9C1186.8,216.8 1189.4,212.6 1190.7,211.5C1191.9,210.3 1189.9,210.8 1191.3,211.1Z"/></svg>